<svg id="visual" viewBox="0 0 960 540" width="960" height="540" xmlns="http://www.w3.org/2000/svg" xmlns:xlink="http://www.w3.org/1999/xlink" version="1.1"><path d="M201 0L239 77L153 154L159 231L147 309L215 386L163 463L232 540L0 540L0 463L0 386L0 309L0 231L0 154L0 77L0 0Z" fill="#0c4a6e"></path><path d="M137 0L116 77L172 154L186 231L120 309L167 386L136 463L155 540L0 540L0 463L0 386L0 309L0 231L0 154L0 77L0 0Z" fill="#0a5883"></path><path d="M125 0L135 77L126 154L145 231L125 309L147 386L136 463L114 540L0 540L0 463L0 386L0 309L0 231L0 154L0 77L0 0Z" fill="#086699"></path><path d="M105 0L108 77L68 154L56 231L70 309L93 386L115 463L58 540L0 540L0 463L0 386L0 309L0 231L0 154L0 77L0 0Z" fill="#0575b0"></path><path d="M54 0L44 77L69 154L37 231L34 309L57 386L34 463L72 540L0 540L0 463L0 386L0 309L0 231L0 154L0 77L0 0Z" fill="#0284c7"></path></svg>