<svg id="visual" viewBox="0 0 960 540" width="960" height="540" xmlns="http://www.w3.org/2000/svg" xmlns:xlink="http://www.w3.org/1999/xlink" version="1.1"><path d="M0 404L64 404L64 376L128 376L128 385L192 385L192 363L256 363L256 388L320 388L320 383L384 383L384 405L448 405L448 394L512 394L512 385L576 385L576 363L640 363L640 383L704 383L704 384L768 384L768 393L832 393L832 359L896 359L896 397L960 397L960 404L960 541L960 541L896 541L896 541L832 541L832 541L768 541L768 541L704 541L704 541L640 541L640 541L576 541L576 541L512 541L512 541L448 541L448 541L384 541L384 541L320 541L320 541L256 541L256 541L192 541L192 541L128 541L128 541L64 541L64 541L0 541Z" fill="#4f46e5"></path><path d="M0 417L64 417L64 454L128 454L128 440L192 440L192 455L256 455L256 417L320 417L320 434L384 434L384 454L448 454L448 451L512 451L512 428L576 428L576 423L640 423L640 439L704 439L704 437L768 437L768 442L832 442L832 414L896 414L896 448L960 448L960 421L960 541L960 541L896 541L896 541L832 541L832 541L768 541L768 541L704 541L704 541L640 541L640 541L576 541L576 541L512 541L512 541L448 541L448 541L384 541L384 541L320 541L320 541L256 541L256 541L192 541L192 541L128 541L128 541L64 541L64 541L0 541Z" fill="#00b2ff"></path><path d="M0 471L64 471L64 480L128 480L128 502L192 502L192 465L256 465L256 485L320 485L320 470L384 470L384 467L448 467L448 482L512 482L512 476L576 476L576 503L640 503L640 467L704 467L704 479L768 479L768 469L832 469L832 488L896 488L896 498L960 498L960 477L960 541L960 541L896 541L896 541L832 541L832 541L768 541L768 541L704 541L704 541L640 541L640 541L576 541L576 541L512 541L512 541L448 541L448 541L384 541L384 541L320 541L320 541L256 541L256 541L192 541L192 541L128 541L128 541L64 541L64 541L0 541Z" fill="#08fcfe"></path></svg>