<svg id="visual" viewBox="0 0 960 540" width="960" height="540" xmlns="http://www.w3.org/2000/svg" xmlns:xlink="http://www.w3.org/1999/xlink" version="1.1"><path d="M752 540L792 463L757 386L738 309L793 231L815 154L737 77L779 0L960 0L960 77L960 154L960 231L960 309L960 386L960 463L960 540Z" fill="#0c4a6e"></path><path d="M822 540L813 463L790 386L813 309L816 231L809 154L772 77L763 0L960 0L960 77L960 154L960 231L960 309L960 386L960 463L960 540Z" fill="#0a5883"></path><path d="M848 540L824 463L863 386L869 309L820 231L862 154L839 77L831 0L960 0L960 77L960 154L960 231L960 309L960 386L960 463L960 540Z" fill="#086699"></path><path d="M892 540L868 463L866 386L875 309L896 231L889 154L883 77L875 0L960 0L960 77L960 154L960 231L960 309L960 386L960 463L960 540Z" fill="#0575b0"></path><path d="M896 540L921 463L893 386L934 309L906 231L910 154L894 77L920 0L960 0L960 77L960 154L960 231L960 309L960 386L960 463L960 540Z" fill="#0284c7"></path></svg>