<svg id="visual" viewBox="0 0 960 540" width="960" height="540" xmlns="http://www.w3.org/2000/svg" xmlns:xlink="http://www.w3.org/1999/xlink" version="1.1"><g>
<g opacity="0.5" transform="translate(701 222)"><path d="M0 -61.5L53.3 -30.8L53.3 30.8L0 61.5L-53.3 30.8L-53.3 -30.8Z" fill="none" stroke="#08fcfe" stroke-width="2"></path></g><g opacity="0.5" transform="translate(855 86)"><path d="M0 -29L25.1 -14.5L25.1 14.5L0 29L-25.1 14.5L-25.1 -14.5Z" fill="none" stroke="#08fcfe" stroke-width="2"></path></g><g opacity="0.5" transform="translate(894 224)"><path d="M0 -22L19.1 -11L19.1 11L0 22L-19.1 11L-19.1 -11Z" fill="none" stroke="#08fcfe" stroke-width="2"></path></g><g opacity="0.5" transform="translate(528 286)"><path d="M0 -52L45 -26L45 26L0 52L-45 26L-45 -26Z" stroke="#08fcfe" fill="none" stroke-width="2"></path></g><g opacity="0.5" transform="translate(510 74)"><path d="M0 -18L15.6 -9L15.6 9L0 18L-15.6 9L-15.6 -9Z" stroke="#08fcfe" fill="none" stroke-width="2"></path></g><g opacity="0.5" transform="translate(376 428)"><path d="M0 -52L45 -26L45 26L0 52L-45 26L-45 -26Z" stroke="#08fcfe" fill="none" stroke-width="2"></path></g><g opacity="0.5" transform="translate(65 80)"><path d="M0 -26L22.5 -13L22.5 13L0 26L-22.5 13L-22.5 -13Z" stroke="#08fcfe" fill="none" stroke-width="2"></path></g><g opacity="0.5" transform="translate(203 175)"><path d="M0 -16L13.9 -8L13.9 8L0 16L-13.9 8L-13.9 -8Z" stroke="#08fcfe" fill="none" stroke-width="2"></path></g><g opacity="0.5" transform="translate(769 331)"><path d="M0 -17L14.7 -8.5L14.7 8.5L0 17L-14.7 8.5L-14.7 -8.5Z" stroke="#08fcfe" fill="none" stroke-width="2"></path></g><g opacity="0.5" transform="translate(154 319)"><path d="M0 -31L26.8 -15.5L26.8 15.5L0 31L-26.8 15.5L-26.8 -15.5Z" stroke="#08fcfe" fill="none" stroke-width="2"></path></g><g opacity="0.5" transform="translate(354 214)"><path d="M0 -17L14.7 -8.5L14.7 8.5L0 17L-14.7 8.5L-14.7 -8.5Z" stroke="#08fcfe" fill="none" stroke-width="2"></path></g><g opacity="0.5" transform="translate(344 76)"><path d="M0 -55L47.6 -27.5L47.6 27.5L0 55L-47.6 27.5L-47.6 -27.5Z" stroke="#08fcfe" fill="none" stroke-width="2"></path></g><g opacity="0.5" transform="translate(132 457)"><path d="M0 -48L41.6 -24L41.6 24L0 48L-41.6 24L-41.6 -24Z" stroke="#08fcfe" fill="none" stroke-width="2"></path></g><g opacity="0.5" transform="translate(887 452)"><path d="M0 -47L40.7 -23.5L40.7 23.5L0 47L-40.7 23.5L-40.7 -23.5Z" stroke="#08fcfe" fill="none" stroke-width="2"></path></g><g opacity="0.5" transform="translate(577 409)"><path d="M0 -21L18.2 -10.5L18.2 10.5L0 21L-18.2 10.5L-18.2 -10.5Z" stroke="#08fcfe" fill="none" stroke-width="2"></path></g><g opacity="0.5" transform="translate(707 477)"><path d="M0 -7L6.1 -3.5L6.1 3.5L0 7L-6.1 3.5L-6.1 -3.5Z" stroke="#08fcfe" fill="none" stroke-width="2"></path></g><g opacity="0.5" transform="translate(643 77)"><path d="M0 -22L19.1 -11L19.1 11L0 22L-19.1 11L-19.1 -11Z" stroke="#08fcfe" fill="none" stroke-width="2"></path></g></g></svg>