<svg id="visual" viewBox="0 0 960 540" width="960" height="540" xmlns="http://www.w3.org/2000/svg" xmlns:xlink="http://www.w3.org/1999/xlink" version="1.1"><path d="M0 134L64 134L64 162L128 162L128 153L192 153L192 175L256 175L256 150L320 150L320 155L384 155L384 133L448 133L448 144L512 144L512 153L576 153L576 175L640 175L640 155L704 155L704 154L768 154L768 145L832 145L832 179L896 179L896 141L960 141L960 134L960 0L960 0L896 0L896 0L832 0L832 0L768 0L768 0L704 0L704 0L640 0L640 0L576 0L576 0L512 0L512 0L448 0L448 0L384 0L384 0L320 0L320 0L256 0L256 0L192 0L192 0L128 0L128 0L64 0L64 0L0 0Z" fill="#4f46e5"></path><path d="M0 121L64 121L64 84L128 84L128 98L192 98L192 83L256 83L256 121L320 121L320 104L384 104L384 84L448 84L448 87L512 87L512 110L576 110L576 115L640 115L640 99L704 99L704 101L768 101L768 96L832 96L832 124L896 124L896 90L960 90L960 117L960 0L960 0L896 0L896 0L832 0L832 0L768 0L768 0L704 0L704 0L640 0L640 0L576 0L576 0L512 0L512 0L448 0L448 0L384 0L384 0L320 0L320 0L256 0L256 0L192 0L192 0L128 0L128 0L64 0L64 0L0 0Z" fill="#00b2ff"></path><path d="M0 67L64 67L64 58L128 58L128 36L192 36L192 73L256 73L256 53L320 53L320 68L384 68L384 71L448 71L448 56L512 56L512 62L576 62L576 35L640 35L640 71L704 71L704 59L768 59L768 69L832 69L832 50L896 50L896 40L960 40L960 61L960 0L960 0L896 0L896 0L832 0L832 0L768 0L768 0L704 0L704 0L640 0L640 0L576 0L576 0L512 0L512 0L448 0L448 0L384 0L384 0L320 0L320 0L256 0L256 0L192 0L192 0L128 0L128 0L64 0L64 0L0 0Z" fill="#08fcfe"></path></svg>