<svg id="visual" viewBox="0 0 675 900" width="675" height="900" xmlns="http://www.w3.org/2000/svg" xmlns:xlink="http://www.w3.org/1999/xlink" version="1.1"><path d="M0 569L61 569L61 557L123 557L123 582L184 582L184 563L245 563L245 556L307 556L307 560L368 560L368 565L430 565L430 577L491 577L491 589L552 589L552 576L614 576L614 582L675 582L675 567L675 901L675 901L614 901L614 901L552 901L552 901L491 901L491 901L430 901L430 901L368 901L368 901L307 901L307 901L245 901L245 901L184 901L184 901L123 901L123 901L61 901L61 901L0 901Z" fill="#4f46e5"></path><path d="M0 688L61 688L61 683L123 683L123 668L184 668L184 702L245 702L245 666L307 666L307 691L368 691L368 670L430 670L430 700L491 700L491 683L552 683L552 684L614 684L614 658L675 658L675 680L675 901L675 901L614 901L614 901L552 901L552 901L491 901L491 901L430 901L430 901L368 901L368 901L307 901L307 901L245 901L245 901L184 901L184 901L123 901L123 901L61 901L61 901L0 901Z" fill="#00b2ff"></path><path d="M0 799L61 799L61 783L123 783L123 804L184 804L184 808L245 808L245 768L307 768L307 804L368 804L368 769L430 769L430 803L491 803L491 785L552 785L552 802L614 802L614 786L675 786L675 767L675 901L675 901L614 901L614 901L552 901L552 901L491 901L491 901L430 901L430 901L368 901L368 901L307 901L307 901L245 901L245 901L184 901L184 901L123 901L123 901L61 901L61 901L0 901Z" fill="#08fcfe"></path></svg>