<svg id="visual" viewBox="0 0 960 540" width="960" height="540" xmlns="http://www.w3.org/2000/svg" xmlns:xlink="http://www.w3.org/1999/xlink" version="1.1"><path d="M746 540L766 463L750 386L780 309L745 231L811 154L741 77L764 0L960 0L960 77L960 154L960 231L960 309L960 386L960 463L960 540Z" fill="#450a0a"></path><path d="M827 540L812 463L789 386L811 309L830 231L811 154L805 77L764 0L960 0L960 77L960 154L960 231L960 309L960 386L960 463L960 540Z" fill="#600e12"></path><path d="M842 540L828 463L850 386L828 309L854 231L808 154L874 77L826 0L960 0L960 77L960 154L960 231L960 309L960 386L960 463L960 540Z" fill="#7d1216"></path><path d="M895 540L882 463L903 386L896 309L848 231L880 154L862 77L870 0L960 0L960 77L960 154L960 231L960 309L960 386L960 463L960 540Z" fill="#9b1719"></path><path d="M911 540L895 463L901 386L922 309L894 231L918 154L890 77L918 0L960 0L960 77L960 154L960 231L960 309L960 386L960 463L960 540Z" fill="#b91c1c"></path></svg>