<svg id="visual" viewBox="0 0 960 540" width="960" height="540" xmlns="http://www.w3.org/2000/svg" xmlns:xlink="http://www.w3.org/1999/xlink" version="1.1"><path d="M216 0L196 77L212 154L182 231L217 309L151 386L221 463L198 540L0 540L0 463L0 386L0 309L0 231L0 154L0 77L0 0Z" fill="#450a0a"></path><path d="M135 0L150 77L173 154L151 231L132 309L151 386L157 463L198 540L0 540L0 463L0 386L0 309L0 231L0 154L0 77L0 0Z" fill="#600e12"></path><path d="M120 0L134 77L112 154L134 231L108 309L154 386L88 463L136 540L0 540L0 463L0 386L0 309L0 231L0 154L0 77L0 0Z" fill="#7d1216"></path><path d="M67 0L80 77L59 154L66 231L114 309L82 386L100 463L92 540L0 540L0 463L0 386L0 309L0 231L0 154L0 77L0 0Z" fill="#9b1719"></path><path d="M51 0L67 77L61 154L40 231L68 309L44 386L72 463L44 540L0 540L0 463L0 386L0 309L0 231L0 154L0 77L0 0Z" fill="#b91c1c"></path></svg>