<svg id="visual" viewBox="0 0 960 540" width="960" height="540" xmlns="http://www.w3.org/2000/svg" xmlns:xlink="http://www.w3.org/1999/xlink" version="1.1"><path d="M761 540L723 463L809 386L803 309L815 231L747 154L799 77L730 0L960 0L960 77L960 154L960 231L960 309L960 386L960 463L960 540Z" fill="#0e7490"></path><path d="M825 540L846 463L790 386L776 309L842 231L795 154L826 77L807 0L960 0L960 77L960 154L960 231L960 309L960 386L960 463L960 540Z" fill="#00859b"></path><path d="M837 540L827 463L836 386L817 309L837 231L815 154L826 77L848 0L960 0L960 77L960 154L960 231L960 309L960 386L960 463L960 540Z" fill="#0096a3"></path><path d="M857 540L854 463L894 386L906 309L892 231L869 154L847 77L904 0L960 0L960 77L960 154L960 231L960 309L960 386L960 463L960 540Z" fill="#00a7a7"></path><path d="M908 540L918 463L893 386L925 309L928 231L905 154L928 77L890 0L960 0L960 77L960 154L960 231L960 309L960 386L960 463L960 540Z" fill="#14b8a6"></path></svg>