<svg id="visual" viewBox="0 0 960 540" width="960" height="540" xmlns="http://www.w3.org/2000/svg" xmlns:xlink="http://www.w3.org/1999/xlink" version="1.1"><path d="M210 0L170 77L205 154L224 231L169 309L147 386L225 463L183 540L0 540L0 463L0 386L0 309L0 231L0 154L0 77L0 0Z" fill="#0e7490"></path><path d="M140 0L149 77L172 154L149 231L146 309L153 386L190 463L199 540L0 540L0 463L0 386L0 309L0 231L0 154L0 77L0 0Z" fill="#00859b"></path><path d="M114 0L138 77L99 154L93 231L142 309L100 386L123 463L131 540L0 540L0 463L0 386L0 309L0 231L0 154L0 77L0 0Z" fill="#0096a3"></path><path d="M70 0L94 77L96 154L87 231L66 309L73 386L79 463L87 540L0 540L0 463L0 386L0 309L0 231L0 154L0 77L0 0Z" fill="#00a7a7"></path><path d="M66 0L41 77L69 154L28 231L56 309L52 386L68 463L42 540L0 540L0 463L0 386L0 309L0 231L0 154L0 77L0 0Z" fill="#14b8a6"></path></svg>